<svg viewBox="0 0 100 100" xmlns="http://www.w3.org/2000/svg"><path d="M58,65Q50,80,27.5,65Q5,50,27.5,28.5Q50,7,58,28.5Q66,50,58,65Z" stroke="none" stroke-width="0" fill="#d7fce6"></path><path d="M63,66Q50,82,30.5,66Q11,50,30.5,28.5Q50,7,63,28.5Q76,50,63,66Z" stroke="none" stroke-width="0" fill="#d5f9e6"></path><path d="M62,58Q50,66,41,58Q32,50,41,30.5Q50,11,62,30.5Q74,50,62,58Z" stroke="none" stroke-width="0" fill="#d3f6e6"></path><path d="M65,62Q50,74,37,62Q24,50,37,38Q50,26,65,38Q80,50,65,62Z" stroke="none" stroke-width="0" fill="#d1f3e6"></path><path d="M58,72.5Q50,95,34.5,72.5Q19,50,34.5,42Q50,34,58,42Q66,50,58,72.5Z" stroke="none" stroke-width="0" fill="#cff0e6"></path><path d="M63.5,62Q50,74,25.5,62Q1,50,25.5,39.5Q50,29,63.5,39.5Q77,50,63.5,62Z" stroke="none" stroke-width="0" fill="#cdede6"></path><path d="M62.5,66Q50,82,38,66Q26,50,38,34Q50,18,62.5,34Q75,50,62.5,66Z" stroke="none" stroke-width="0" fill="#cbeae6"></path><path d="M75,66Q50,82,27,66Q4,50,27,27.5Q50,5,75,27.5Q100,50,75,66Z" stroke="none" stroke-width="0" fill="#c9e7e6"></path><path d="M58,66Q50,82,41,66Q32,50,41,30Q50,10,58,30Q66,50,58,66Z" stroke="none" stroke-width="0" fill="#c7e4e6"></path><path d="M75,61Q50,72,28.5,61Q7,50,28.5,28Q50,6,75,28Q100,50,75,61Z" stroke="none" stroke-width="0" fill="#c5e1e6"></path><path d="M60,61Q50,72,39,61Q28,50,39,25.5Q50,1,60,25.5Q70,50,60,61Z" stroke="none" stroke-width="0" fill="#c3dee6"></path><path d="M60,68.5Q50,87,37,68.5Q24,50,37,29Q50,8,60,29Q70,50,60,68.5Z" stroke="none" stroke-width="0" fill="#c1dbe6"></path><path d="M58.5,74.5Q50,99,32,74.5Q14,50,32,33.5Q50,17,58.5,33.5Q67,50,58.5,74.5Z" stroke="none" stroke-width="0" fill="#bfd8e6"></path><path d="M71,63Q50,76,35,63Q20,50,35,42Q50,34,71,42Q92,50,71,63Z" stroke="none" stroke-width="0" fill="#bdd5e6"></path><path d="M71,66Q50,82,35,66Q20,50,35,34.5Q50,19,71,34.5Q92,50,71,66Z" stroke="none" stroke-width="0" fill="#bbd2e6"></path><path d="M70,60Q50,70,28,60Q6,50,28,31Q50,12,70,31Q90,50,70,60Z" stroke="none" stroke-width="0" fill="#b9cfe6"></path><path d="M69.5,58.5Q50,67,30.5,58.5Q11,50,30.5,41Q50,32,69.5,41Q89,50,69.5,58.5Z" stroke="none" stroke-width="0" fill="#b7cce6"></path><path d="M64.5,68.5Q50,87,42.5,68.5Q35,50,42.5,41Q50,32,64.5,41Q79,50,64.5,68.5Z" stroke="none" stroke-width="0" fill="#b5c9e6"></path><path d="M60,72Q50,94,34,72Q18,50,34,30.5Q50,11,60,30.5Q70,50,60,72Z" stroke="none" stroke-width="0" fill="#b3c6e6"></path><path d="M73.5,68Q50,86,34,68Q18,50,34,33Q50,16,73.5,33Q97,50,73.5,68Z" stroke="none" stroke-width="0" fill="#b1c3e6"></path><path d="M64.5,64.5Q50,79,25.5,64.5Q1,50,25.5,34.5Q50,19,64.5,34.5Q79,50,64.5,64.5Z" stroke="none" stroke-width="0" fill="#afc0e6"></path><path d="M71,73Q50,96,37,73Q24,50,37,38Q50,26,71,38Q92,50,71,73Z" stroke="none" stroke-width="0" fill="#adbde6"></path><path d="M68.5,68.5Q50,87,35,68.5Q20,50,35,38Q50,26,68.5,38Q87,50,68.5,68.5Z" stroke="none" stroke-width="0" fill="#abbae6"></path><path d="M60.5,73Q50,96,26.5,73Q3,50,26.5,31Q50,12,60.5,31Q71,50,60.5,73Z" stroke="none" stroke-width="0" fill="#a9b7e6"></path><path d="M71.5,73Q50,96,32.5,73Q15,50,32.5,28.5Q50,7,71.5,28.5Q93,50,71.5,73Z" stroke="none" stroke-width="0" fill="#a7b4e6"></path><path d="M63,59Q50,68,32,59Q14,50,32,29Q50,8,63,29Q76,50,63,59Z" stroke="none" stroke-width="0" fill="#a5b1e6"></path><path d="M58,63Q50,76,32.5,63Q15,50,32.5,28Q50,6,58,28Q66,50,58,63Z" stroke="none" stroke-width="0" fill="#a3aee6"></path><path d="M70.5,64.5Q50,79,35.5,64.5Q21,50,35.5,40Q50,30,70.5,40Q91,50,70.5,64.5Z" stroke="none" stroke-width="0" fill="#a1abe6"></path><path d="M68,59.5Q50,69,37,59.5Q24,50,37,34Q50,18,68,34Q86,50,68,59.5Z" stroke="none" stroke-width="0" fill="#9fa8e6"></path><path d="M67.5,67Q50,84,36,67Q22,50,36,38Q50,26,67.5,38Q85,50,67.5,67Z" stroke="none" stroke-width="0" fill="#9da5e6"></path><path d="M68.5,71.5Q50,93,42,71.5Q34,50,42,39.5Q50,29,68.5,39.5Q87,50,68.5,71.5Z" stroke="none" stroke-width="0" fill="#9ba2e6"></path><path d="M65.5,70Q50,90,31.5,70Q13,50,31.5,42Q50,34,65.5,42Q81,50,65.5,70Z" stroke="none" stroke-width="0" fill="#999fe6"></path><path d="M67,64Q50,78,30,64Q10,50,30,37Q50,24,67,37Q84,50,67,64Z" stroke="none" stroke-width="0" fill="#979ce6"></path><path d="M57.5,71.5Q50,93,26.5,71.5Q3,50,26.5,42Q50,34,57.5,42Q65,50,57.5,71.5Z" stroke="none" stroke-width="0" fill="#9599e6"></path><path d="M73,69Q50,88,36.5,69Q23,50,36.5,34Q50,18,73,34Q96,50,73,69Z" stroke="none" stroke-width="0" fill="#9396e6"></path><path d="M66.5,66Q50,82,33.5,66Q17,50,33.5,35.5Q50,21,66.5,35.5Q83,50,66.5,66Z" stroke="none" stroke-width="0" fill="#9193e6"></path><path d="M61.5,72.5Q50,95,36,72.5Q22,50,36,29.5Q50,9,61.5,29.5Q73,50,61.5,72.5Z" stroke="none" stroke-width="0" fill="#8f90e6"></path><path d="M64.5,61Q50,72,25,61Q0,50,25,28.5Q50,7,64.5,28.5Q79,50,64.5,61Z" stroke="none" stroke-width="0" fill="#8d8de6"></path><path d="M66.5,64Q50,78,31,64Q12,50,31,37.5Q50,25,66.5,37.5Q83,50,66.5,64Z" stroke="none" stroke-width="0" fill="#8b8ae6"></path><path d="M59,60.5Q50,71,37.5,60.5Q25,50,37.5,27.5Q50,5,59,27.5Q68,50,59,60.5Z" stroke="none" stroke-width="0" fill="#8987e6"></path><path d="M59.5,69Q50,88,36,69Q22,50,36,37Q50,24,59.5,37Q69,50,59.5,69Z" stroke="none" stroke-width="0" fill="#8784e6"></path><path d="M74.5,59.5Q50,69,31,59.5Q12,50,31,36.5Q50,23,74.5,36.5Q99,50,74.5,59.5Z" stroke="none" stroke-width="0" fill="#8581e6"></path></svg>